<svg xmlns="http://www.w3.org/2000/svg" width="253.016" height="354.866" viewBox="0 0 253.016 354.866"><g fill="#1D1D1B"><path d="M165.156 55.755c-13.406 0-24.27 10.87-24.27 24.273 0 13.402 10.863 24.268 24.27 24.268 13.408 0 24.27-10.865 24.27-24.268.002-13.404-10.862-24.273-24.27-24.273z"/><path d="M44.094 14.27l-.09.09H22.178v21.826l-.094.09.094.09V225.92h211.56V14.36H44.185l-.092-.09zM202.61 45.49v127.29L75.313 45.49H202.61zM53.306 67.496l65.758 65.758H53.307V67.497zm0 96.887h96.887L180.6 194.79H53.306v-30.407z"/></g></svg>