<svg width="212" height="212" viewBox="0 0 212 212" xmlns="http://www.w3.org/2000/svg"><title>logo</title><g fill="#1D1D1B" fill-rule="evenodd"><path d="M143.156 41.755c-13.406 0-24.27 10.869-24.27 24.273 0 13.402 10.863 24.268 24.27 24.268 13.408 0 24.271-10.865 24.271-24.268.001-13.404-10.863-24.273-24.271-24.273z"/><path d="M22.094.269l-.09.092H.178v21.825l-.094.091.094.09V211.92h211.559V.36H22.186l-.092-.091zm158.515 31.22v127.292L53.314 31.489h127.295zM31.307 53.497l65.758 65.758H31.307V53.497zm0 96.887h96.887l30.406 30.408H31.307v-30.408z"/></g></svg>