<?xml version="1.0" encoding="utf-8"?>
<!-- Generator: Adobe Illustrator 15.1.0, SVG Export Plug-In . SVG Version: 6.00 Build 0)  -->
<!DOCTYPE svg PUBLIC "-//W3C//DTD SVG 1.1//EN" "http://www.w3.org/Graphics/SVG/1.1/DTD/svg11.dtd">
<svg version="1.1" id="Capa_1" xmlns="http://www.w3.org/2000/svg" xmlns:xlink="http://www.w3.org/1999/xlink" x="0px" y="0px"
	 width="253.016px" height="354.866px" viewBox="0 0 253.016 354.866" enable-background="new 0 0 253.016 354.866"
	 xml:space="preserve">
<g>
	<g>
		<path fill="#1D1D1B" d="M165.156,55.755c-13.406,0-24.27,10.869-24.27,24.273c0,13.402,10.863,24.268,24.27,24.268
			c13.408,0,24.271-10.865,24.271-24.268C189.428,66.624,178.564,55.755,165.156,55.755z"/>
		<path fill="#1D1D1B" d="M44.094,14.269l-0.09,0.092H22.178v21.825l-0.094,0.091l0.094,0.09V225.92h211.559V14.36H44.186
			L44.094,14.269z M202.609,45.489v127.292L75.314,45.489H202.609z M53.307,67.497l65.758,65.758H53.307V67.497z M53.307,164.384
			h96.887l30.406,30.408H53.307V164.384z"/>
	</g>
</g>
</svg>
